<svg xmlns="http://www.w3.org/2000/svg" viewBox="0 0 200 64"><defs><style>.a{fill:#fff;}</style></defs><path class="a" d="M69.65,30.41a15.48,15.48,0,0,1-1,5.63,11.69,11.69,0,0,1-2.61,4.07,10.93,10.93,0,0,1-3.94,2.47,14.43,14.43,0,0,1-4.92.82,14,14,0,0,1-4.82-.82,11.28,11.28,0,0,1-4-2.47A11.53,11.53,0,0,1,45.78,36a15.26,15.26,0,0,1-1-5.63,14.67,14.67,0,0,1,1-5.64,11.91,11.91,0,0,1,2.72-4.08,11.22,11.22,0,0,1,4-2.49,13.64,13.64,0,0,1,4.73-.82,14,14,0,0,1,4.83.82,11,11,0,0,1,4,2.49,11.79,11.79,0,0,1,2.66,4.08A15.08,15.08,0,0,1,69.65,30.41Zm-19,0a11.32,11.32,0,0,0,.45,3.31,7.7,7.7,0,0,0,1.29,2.54,5.89,5.89,0,0,0,2.07,1.64,7.16,7.16,0,0,0,5.6,0,5.7,5.7,0,0,0,2.09-1.64,7.72,7.72,0,0,0,1.3-2.54,11.32,11.32,0,0,0,.45-3.31,11.46,11.46,0,0,0-.45-3.33,7.63,7.63,0,0,0-1.3-2.56A5.7,5.7,0,0,0,60,22.88a6.63,6.63,0,0,0-2.79-.57,6.48,6.48,0,0,0-2.81.59,6.06,6.06,0,0,0-2.07,1.66,7.65,7.65,0,0,0-1.29,2.55A11.45,11.45,0,0,0,50.61,30.41Z"/><path class="a" d="M74,42.9V15.83L79.34,15V24a11.37,11.37,0,0,1,1.38-.35,9.48,9.48,0,0,1,1.64-.16,10.09,10.09,0,0,1,3.83.63,6,6,0,0,1,2.45,1.78,6.9,6.9,0,0,1,1.3,2.74,15.34,15.34,0,0,1,.38,3.53V42.9H85v-10a7.49,7.49,0,0,0-.66-3.68,2.68,2.68,0,0,0-2.47-1.08,7.19,7.19,0,0,0-1.35.13,11.12,11.12,0,0,0-1.13.27V42.9Z"/><path class="a" d="M112.78,33.43a11.89,11.89,0,0,1-.67,4.11,8.67,8.67,0,0,1-1.92,3.13,8.51,8.51,0,0,1-3.1,2,11.76,11.76,0,0,1-4.17.7q-1,0-2-.09c-.71-.06-1.4-.14-2.09-.24s-1.33-.21-2-.34-1.17-.27-1.65-.41V15.83l5.36-.87V24.4a9.27,9.27,0,0,1,4-.83,8.5,8.5,0,0,1,3.56.7,6.94,6.94,0,0,1,2.6,2,9,9,0,0,1,1.58,3.11A14.18,14.18,0,0,1,112.78,33.43Zm-5.47-.14q0-5.19-3.82-5.19a6.54,6.54,0,0,0-1.64.22,4.45,4.45,0,0,0-1.31.54v9.76c.26,0,.6.09,1,.12s.85.06,1.33.06a3.85,3.85,0,0,0,3.31-1.52A6.51,6.51,0,0,0,107.31,33.29Z"/><path class="a" d="M133.08,42.25A30.79,30.79,0,0,1,125,43.33a10.55,10.55,0,0,1-4-.65,6,6,0,0,1-2.54-1.81,7,7,0,0,1-1.33-2.79,14.72,14.72,0,0,1-.4-3.57V24h5.36v9.9a7.64,7.64,0,0,0,.69,3.75,2.71,2.71,0,0,0,2.55,1.15c.39,0,.8,0,1.23,0s.81-.08,1.15-.13V24h5.36Z"/><path class="a" d="M154.47,40.52q0,4.65-2.36,6.9t-7.29,2.25a19.35,19.35,0,0,1-3.46-.31,20.48,20.48,0,0,1-3.2-.81l.94-4.5a15.22,15.22,0,0,0,2.64.79,15,15,0,0,0,3.15.29,4.37,4.37,0,0,0,3.26-1,3.58,3.58,0,0,0,.95-2.59v-.68a8.65,8.65,0,0,1-1.78.59,9.61,9.61,0,0,1-2,.2,7.66,7.66,0,0,1-6-2.32,9.4,9.4,0,0,1-2.09-6.5,10.71,10.71,0,0,1,.65-3.8,8,8,0,0,1,1.89-2.93,8.34,8.34,0,0,1,3-1.89,11.54,11.54,0,0,1,4.07-.67c.65,0,1.32,0,2,.09s1.36.14,2,.24,1.32.21,1.93.34,1.16.27,1.64.41Zm-11.77-7.7q0,4.5,3.63,4.5a5.19,5.19,0,0,0,1.55-.22,5.61,5.61,0,0,0,1.22-.5V28a8.93,8.93,0,0,0-.93-.12,11.57,11.57,0,0,0-1.26-.06,3.69,3.69,0,0,0-3.17,1.41A5.76,5.76,0,0,0,142.7,32.82Z"/></svg>
