<svg id="图层_1" data-name="图层 1" xmlns="http://www.w3.org/2000/svg" viewBox="0 0 614.84 182.62"><defs><style>.cls-1{fill:#fff;}.cls-2{font-size:120px;font-family:NormaPro-BoldItalic, Norma Pro;font-weight:700;font-style:italic;}</style></defs><title>HEI鸟 1</title><path d="M286.2,231.56v0l-.05.07Z" transform="translate(-85.4 -140.3)"/><path d="M155.08,224h0l-.68.42.68-.42Z" transform="translate(-85.4 -140.3)"/><path d="M168.39,209.08c-.14.44-.26.83-.38,1.17l0-.06C168.13,209.82,168.26,209.45,168.39,209.08Z" transform="translate(-85.4 -140.3)"/><path d="M166.26,215.44h.15l-.26.23Z" transform="translate(-85.4 -140.3)"/><path d="M167.57,203.82c-.3-.12-.62-.24-.93-.34h0a8.8,8.8,0,0,0-1.9-.47l-.4,0a30.85,30.85,0,0,0-4.68-.24h.6l.32,0a12.75,12.75,0,0,1,3.65.18A9.22,9.22,0,0,1,167.57,203.82Z" transform="translate(-85.4 -140.3)"/><path d="M187.61,199.43a18.9,18.9,0,0,1-2.12.06c-5.33-10.86-16.64-14.53-18.15-15a19.66,19.66,0,0,1-.37-2.44,19.06,19.06,0,1,1,20.64,17.35Z" transform="translate(-85.4 -140.3)"/><path class="cls-1" d="M187.61,199.43a18.9,18.9,0,0,1-2.12.06c-5.33-10.86-16.64-14.53-18.15-15a19.66,19.66,0,0,1-.37-2.44,19.06,19.06,0,1,1,20.64,17.35Z" transform="translate(-85.4 -140.3)"/><circle cx="102.13" cy="39.81" r="5.95"/><path d="M150.88,224.05Z" transform="translate(-85.4 -140.3)"/><path d="M106.44,204a47.59,47.59,0,0,1-2.78-11.21A113.39,113.39,0,0,0,106.44,204Z" transform="translate(-85.4 -140.3)"/><path d="M155.4,223.78l-.32.21h0l-.68.42.68-.42Z" transform="translate(-85.4 -140.3)"/><path d="M136.63,231.26a26.83,26.83,0,0,1-3.58.18C134.2,231.41,135.4,231.35,136.63,231.26Z" transform="translate(-85.4 -140.3)"/><path d="M162.3,216.76a18.13,18.13,0,0,1-7.11,2.8A46.37,46.37,0,0,0,162.3,216.76Z" transform="translate(-85.4 -140.3)"/><path d="M166.23,214c-.29.52-.6,1-.92,1.52l-.83.08.24-.3h0A9.78,9.78,0,0,0,166.2,214S166.21,214,166.23,214Z" transform="translate(-85.4 -140.3)"/><path d="M160.18,202.7h0Z" transform="translate(-85.4 -140.3)"/><path d="M164.78,203l-.48-.07a22.74,22.74,0,0,0-4.08-.26l.32,0a12.75,12.75,0,0,1,3.65.18,4.25,4.25,0,0,1,.51.14Z" transform="translate(-85.4 -140.3)"/><path d="M170.29,206.15a4.89,4.89,0,0,0-2.71-2.33h0c-.3-.12-.62-.24-.93-.34h0a14.19,14.19,0,0,0-1.82-.44,6.44,6.44,0,0,1,2,1.13l.12.06h0a.31.31,0,0,0-.09-.07l-2-1.06-3.76-.36a14.32,14.32,0,0,1,2.72.6l.3.1.12,0a6.72,6.72,0,0,1,1.61.8,2.37,2.37,0,0,1,.33.22l.15.11a4.52,4.52,0,0,1,1.65,5.25h0a.06.06,0,0,1,0,0,14.84,14.84,0,0,1-5.56,6.84,18.13,18.13,0,0,1-7.11,2.8c-2.89.91-5.19,1.41-5.36,1.45h0c-.69.22-32.76,9.92-43.37-17l0,0a47.59,47.59,0,0,1-2.78-11.21v-.06A85.78,85.78,0,0,1,103.5,174s-9,29.41,2.75,46.15c4.79,6.84,13,11.57,26.79,11.29h0c1.15,0,2.35-.09,3.58-.18h0a50.81,50.81,0,0,0,16.07-3.78h0a42.57,42.57,0,0,0,10.14-6c4.77-3.85,6.45-6.6,7.86-9.85,0-.1.08-.2.12-.3A7.43,7.43,0,0,0,170.29,206.15ZM155.08,224h0l-.68.42.68-.42.34-.22Zm13.31-14.91c-.14.44-.26.83-.38,1.17l0-.06C168.13,209.82,168.26,209.45,168.39,209.08Zm-3.66,6.22A9.78,9.78,0,0,0,166.2,214s0,0,0,0c-.29.52-.6,1-.92,1.52l-.83.08.24-.3Zm1.42.36.11-.22h.15Z" transform="translate(-85.4 -140.3)"/><path d="M106.44,204a47.59,47.59,0,0,1-2.78-11.21A113.39,113.39,0,0,0,106.44,204Z" transform="translate(-85.4 -140.3)"/><path d="M155.4,223.78l-.32.21h0l-.68.42.68-.42Z" transform="translate(-85.4 -140.3)"/><path d="M162.3,216.76a18.13,18.13,0,0,1-7.11,2.8A46.37,46.37,0,0,0,162.3,216.76Z" transform="translate(-85.4 -140.3)"/><path d="M166.23,214c-.29.52-.6,1-.92,1.52l-.83.08.24-.3h0A9.78,9.78,0,0,0,166.2,214S166.21,214,166.23,214Z" transform="translate(-85.4 -140.3)"/><path d="M166.26,215.44h.15l-.26.23Z" transform="translate(-85.4 -140.3)"/><path d="M166.91,204.22h0a.31.31,0,0,0-.09-.07Z" transform="translate(-85.4 -140.3)"/><path d="M164.82,203.78a6.54,6.54,0,0,1,.59.3C165.21,204,165,203.87,164.82,203.78Z" transform="translate(-85.4 -140.3)"/><path d="M164.14,203.48l.68.3C164.59,203.67,164.37,203.57,164.14,203.48Z" transform="translate(-85.4 -140.3)"/><path d="M166.91,204.22h0a.31.31,0,0,0-.09-.07Z" transform="translate(-85.4 -140.3)"/><path d="M166.2,214s0,0,0,0c-.29.52-.6,1-.92,1.52l-.83.08.24-.3h0A9.78,9.78,0,0,0,166.2,214Z" transform="translate(-85.4 -140.3)"/><path d="M168.39,209.08c-.14.44-.26.83-.38,1.17l0-.06C168.13,209.82,168.26,209.45,168.39,209.08Z" transform="translate(-85.4 -140.3)"/><path d="M164.78,203a6.44,6.44,0,0,1,2,1.13l-2-1.06-3.76-.36a14.32,14.32,0,0,1,2.72.6,15.66,15.66,0,0,0-4.1-.62h.6l.32,0a21.72,21.72,0,0,1,3.65.18,9.22,9.22,0,0,1,3.38,1c-.3-.12-.62-.24-.93-.34h0A14.19,14.19,0,0,0,164.78,203Z" transform="translate(-85.4 -140.3)"/><path d="M166.79,204.16l.12.06h0A.31.31,0,0,0,166.79,204.16Z" transform="translate(-85.4 -140.3)"/><path d="M166.23,214c-.29.52-.6,1-.92,1.52l-.83.08.24-.3h0A9.78,9.78,0,0,0,166.2,214S166.21,214,166.23,214Z" transform="translate(-85.4 -140.3)"/><path d="M279.76,174a29.61,29.61,0,0,1-14.95-1.69,72,72,0,0,1-12.56-6.47c2.82-1.42,9.06-4.78,3.42-4.41-3.73.24-13.1-3.88-21.2-7.86a95.12,95.12,0,0,0-12.39-7.73c-15.15-7.58-30.74-7.14-46,.14A53.17,53.17,0,0,0,157,161.39c-.47.59-.92,1.19-1.36,1.8.08-3.77.1-11.75-1-12.7-1.41-1.17-1.26,14.58-1.24,16.17h0a1,1,0,0,0-.1.17l0,.07-.15.26-.13.22c-.65-2.63-2.14-8.16-3.19-8.74-1.22-.68,1.35,8.71,2,10.94a50,50,0,0,0-5.7,26.23,48.2,48.2,0,0,0,.74,5.91,32.17,32.17,0,0,0,1.36,4,25.58,25.58,0,0,0,2.59-.87,21.89,21.89,0,0,1,8.79-2.14h.69l.32,0a12.75,12.75,0,0,1,3.65.18,9.22,9.22,0,0,1,3.38,1h0a4.89,4.89,0,0,1,2.71,2.33,7.43,7.43,0,0,1,.57,5.14c0,.1-.07.2-.12.3-1.41,3.25-3.09,6-7.86,9.85a42.57,42.57,0,0,1-10.14,6h0a50.81,50.81,0,0,1-16.07,3.78h0a26.83,26.83,0,0,1-3.58.18h0c-13.75.28-22-4.45-26.79-11.29C94.52,203.41,103.5,174,103.5,174s-12.11,20.32-16,35.67c-.48,2.3-.87,4.65-1.19,7.05a92.7,92.7,0,0,0,2,35.42q.6,2.33,1.32,4.62a.32.32,0,0,1,0,.09,95.24,95.24,0,0,0,7.65,17.71c12.63,22.75,31.66,37.65,56.38,44.82a91,91,0,0,0,51.09-.26A96.66,96.66,0,0,0,234,304.49a92.1,92.1,0,0,0,29.86-35.1c8.2-16.81,10.62-34.67,8-53.12-.68-4.85-.18-8.82,2.49-13.1,4.77-7.65,7.34-16.27,8.93-25.18C284,174.34,283.39,173.45,279.76,174Zm-92.15,25.47a18.9,18.9,0,0,1-2.12.06c-5.33-10.86-16.64-14.53-18.15-15a19.66,19.66,0,0,1-.37-2.44,19.06,19.06,0,1,1,20.64,17.35Z" transform="translate(-85.4 -140.3)"/><text class="cls-2" transform="translate(226.52 126.95)">OHBUG</text><text x="-85.4" y="-140.3"/></svg>